<svg width="25" height="17" viewBox="0 0 25 17" fill="none" xmlns="http://www.w3.org/2000/svg">
<path d="M23.8254 7.75804L20.7031 5.87081V2.96746L17.1205 0.53125H7.42188V4.78125H3.90625C3.59556 4.7815 3.2977 4.86553 3.07801 5.01492C2.85832 5.16431 2.73474 5.36686 2.73438 5.57812V15.6719C2.73474 15.8831 2.85832 16.0857 3.07801 16.2351C3.2977 16.3845 3.59556 16.4685 3.90625 16.4688H24.2188V8.35367C24.2187 8.24114 24.1836 8.12989 24.1158 8.02724C24.048 7.92458 23.949 7.83284 23.8254 7.75804ZM7.42188 15.4062H4.29688V5.84375H7.42188V15.4062ZM16.0156 1.59375H16.4733L19.1406 3.40754V3.71875H16.0156V1.59375ZM8.98438 1.59375H14.4531V4.78125H19.1406V7.17188H8.98438V1.59375ZM22.6562 15.4062H8.98438V8.23438H20.7031V7.29237L22.6562 8.47297V15.4062Z" fill="white"/>
<path d="M11.3281 11.4219H12.8906V12.4844H11.3281V11.4219ZM14.4531 11.4219H16.0156V12.4844H14.4531V11.4219ZM11.3281 13.5469H12.8906V14.6094H11.3281V13.5469ZM14.4531 13.5469H16.0156V14.6094H14.4531V13.5469ZM17.5781 11.4219H19.1406V12.4844H17.5781V11.4219ZM17.5781 13.5469H19.1406V14.6094H17.5781V13.5469ZM11.3281 9.29688H19.1406V10.3594H11.3281V9.29688Z" fill="white"/>
</svg>
