<svg width="62" height="78" viewBox="0 0 62 78" fill="none" xmlns="http://www.w3.org/2000/svg">
<path opacity="0.2" d="M23.25 73.125L27.125 48.75L11.625 41.4375L38.75 4.875L34.875 29.25L50.375 36.5625L23.25 73.125Z" fill="black"/>
<path d="M52.2616 36.0049C52.1882 35.6142 52.0393 35.2524 51.8281 34.9516C51.6168 34.6507 51.3498 34.4202 51.0507 34.2804L37.0982 27.6961L40.6487 5.35336C40.7291 4.83423 40.6731 4.2963 40.4892 3.82072C40.3052 3.34515 40.0033 2.95774 39.629 2.71696C39.2547 2.47618 38.8283 2.39509 38.4142 2.48593C38 2.57677 37.6206 2.83461 37.3332 3.22054L10.2082 39.783C9.98786 40.0751 9.82848 40.4312 9.74428 40.8197C9.66008 41.2081 9.65368 41.6168 9.72564 42.0091C9.79761 42.4014 9.94569 42.7652 10.1567 43.0679C10.3677 43.3706 10.635 43.6029 10.9347 43.744L24.892 50.3283L21.3512 72.6466C21.2708 73.1658 21.3268 73.7037 21.5107 74.1793C21.6947 74.6548 21.9966 75.0422 22.3709 75.283C22.7452 75.5238 23.1716 75.6049 23.5857 75.5141C23.9999 75.4232 24.3793 75.1654 24.6668 74.7794L51.7918 38.2169C52.0081 37.9248 52.1641 37.5704 52.246 37.1847C52.3279 36.799 52.3333 36.3938 52.2616 36.0049ZM26.488 65.2031L29.0237 49.2436C29.1145 48.6776 29.0425 48.0894 28.8208 47.5839C28.599 47.0783 28.2418 46.6882 27.8128 46.4831L15.0156 40.4351L35.5095 12.8121L32.9762 28.7716C32.8855 29.3377 32.9574 29.9258 33.1791 30.4314C33.4009 30.9369 33.7581 31.327 34.1871 31.5321L46.9746 37.5649L26.488 65.2031Z" fill="black"/>
</svg>
