<svg width="19" height="18" viewBox="0 0 19 18" fill="none" xmlns="http://www.w3.org/2000/svg">
<path d="M9.25 7.125C9.67132 7.125 10.0885 7.04579 10.4778 6.89188C10.867 6.73798 11.2207 6.51239 11.5186 6.22801C11.8166 5.94363 12.0529 5.60603 12.2141 5.23447C12.3753 4.86291 12.4583 4.46467 12.4583 4.0625C12.4583 3.66033 12.3753 3.26209 12.2141 2.89053C12.0529 2.51897 11.8166 2.18137 11.5186 1.89699C11.2207 1.61261 10.867 1.38702 10.4778 1.23312C10.0885 1.07921 9.67132 1 9.25 1C8.3991 1 7.58305 1.32266 6.98137 1.89699C6.37969 2.47132 6.04167 3.25027 6.04167 4.0625C6.04167 4.87473 6.37969 5.65368 6.98137 6.22801C7.58305 6.80234 8.3991 7.125 9.25 7.125ZM1 16.225V16.75H17.5V16.225C17.5 14.265 17.5 13.285 17.1003 12.536C16.7488 11.8775 16.1879 11.3421 15.498 11.0065C14.7133 10.625 13.6867 10.625 11.6333 10.625H6.86667C4.81333 10.625 3.78667 10.625 3.002 11.0065C2.3121 11.3421 1.7512 11.8775 1.39967 12.536C1 13.285 1 14.265 1 16.225Z" stroke="white" stroke-width="2" stroke-linecap="round" stroke-linejoin="round"/>
</svg>
