<svg width="32" height="45" viewBox="0 0 32 45" fill="none" xmlns="http://www.w3.org/2000/svg">
<path opacity="0.2" d="M25.1666 26.0519C25.1666 28.8722 21.4354 31.1592 16.8333 31.1592C14.7916 31.1592 12.9208 30.7094 11.4719 29.9618C15.4541 29.5773 18.5 27.4706 18.5 24.917V21.0468C22.3041 21.5207 25.1666 23.5806 25.1666 26.0519ZM18.5 19.2423C18.5 16.4219 14.7687 14.135 10.1666 14.135C5.56456 14.135 1.83331 16.4219 1.83331 19.2423C1.83331 22.0626 5.56456 24.3495 10.1666 24.3495C14.7687 24.3495 18.5 22.0626 18.5 19.2423Z" fill="black"/>
<path d="M19.3333 20.0324V19.2422C19.3333 15.6841 15.3927 13 10.1667 13C4.94063 13 1 15.6841 1 19.2422V24.9169C1 27.8805 3.73438 30.2355 7.66667 30.9406V31.7266C7.66667 35.2846 11.6073 37.9687 16.8333 37.9687C22.0594 37.9687 26 35.2846 26 31.7266V26.0518C26 23.1152 23.3521 20.7573 19.3333 20.0324ZM24.3333 26.0518C24.3333 27.9273 21.126 30.0241 16.8333 30.0241C16.4448 30.0241 16.0594 30.0057 15.6792 29.9717C17.926 28.8566 19.3333 27.0449 19.3333 24.9169V22.3264C22.4448 22.9577 24.3333 24.6715 24.3333 26.0518ZM7.66667 28.6409V25.2659C8.4956 25.413 9.33072 25.486 10.1667 25.4844C11.0026 25.486 11.8377 25.413 12.6667 25.2659V28.6409C11.839 28.8075 11.0034 28.8905 10.1667 28.8892C9.32998 28.8905 8.49437 28.8075 7.66667 28.6409ZM17.6667 22.9208V24.9169C17.6667 26.1072 16.374 27.3854 14.3333 28.1614V24.846C15.6781 24.4019 16.8167 23.7408 17.6667 22.9208ZM10.1667 15.2699C14.4594 15.2699 17.6667 17.3667 17.6667 19.2422C17.6667 21.1177 14.4594 23.2145 10.1667 23.2145C5.87396 23.2145 2.66667 21.1177 2.66667 19.2422C2.66667 17.3667 5.87396 15.2699 10.1667 15.2699ZM2.66667 24.9169V22.9208C3.51667 23.7408 4.65521 24.4019 6 24.846V28.1614C3.95937 27.3854 2.66667 26.1072 2.66667 24.9169ZM9.33333 31.7266V31.135C9.60729 31.1492 9.88437 31.1591 10.1667 31.1591C10.5708 31.1591 10.9656 31.1406 11.3531 31.1094C11.7836 31.3193 12.2221 31.4974 12.6667 31.6429V34.9711C10.626 34.1951 9.33333 32.9168 9.33333 31.7266ZM14.3333 35.4506V32.067C15.162 32.2188 15.9972 32.2946 16.8333 32.294C17.6693 32.2956 18.5044 32.2227 19.3333 32.0756V35.4506C17.6755 35.7816 15.9911 35.7816 14.3333 35.4506ZM21 34.9711V31.6556C22.3448 31.2116 23.4833 30.5505 24.3333 29.7305V31.7266C24.3333 32.9168 23.0406 34.1951 21 34.9711Z" fill="black"/>
</svg>
