<svg width="37" height="38" viewBox="0 0 37 38" fill="none" xmlns="http://www.w3.org/2000/svg">
<path d="M26.5938 16.625C26.5938 16.9399 26.4719 17.242 26.2551 17.4647C26.0383 17.6874 25.7442 17.8125 25.4375 17.8125H16.1875C15.8808 17.8125 15.5867 17.6874 15.3699 17.4647C15.1531 17.242 15.0312 16.9399 15.0312 16.625C15.0312 16.3101 15.1531 16.008 15.3699 15.7853C15.5867 15.5626 15.8808 15.4375 16.1875 15.4375H25.4375C25.7442 15.4375 26.0383 15.5626 26.2551 15.7853C26.4719 16.008 26.5938 16.3101 26.5938 16.625ZM25.4375 20.1875H16.1875C15.8808 20.1875 15.5867 20.3126 15.3699 20.5353C15.1531 20.758 15.0312 21.0601 15.0312 21.375C15.0312 21.6899 15.1531 21.992 15.3699 22.2147C15.5867 22.4374 15.8808 22.5625 16.1875 22.5625H25.4375C25.7442 22.5625 26.0383 22.4374 26.2551 22.2147C26.4719 21.992 26.5938 21.6899 26.5938 21.375C26.5938 21.0601 26.4719 20.758 26.2551 20.5353C26.0383 20.3126 25.7442 20.1875 25.4375 20.1875ZM32.375 7.125V30.875C32.375 31.5049 32.1314 32.109 31.6977 32.5544C31.264 32.9998 30.6758 33.25 30.0625 33.25H6.9375C6.32419 33.25 5.73599 32.9998 5.30232 32.5544C4.86864 32.109 4.625 31.5049 4.625 30.875V7.125C4.625 6.49511 4.86864 5.89102 5.30232 5.44562C5.73599 5.00022 6.32419 4.75 6.9375 4.75H30.0625C30.6758 4.75 31.264 5.00022 31.6977 5.44562C32.1314 5.89102 32.375 6.49511 32.375 7.125ZM6.9375 30.875H10.4062V7.125H6.9375V30.875ZM30.0625 30.875V7.125H12.7188V30.875H30.0625Z" fill="black"/>
</svg>
